<svg width="21" height="20" viewBox="0 0 21 20" fill="none" xmlns="http://www.w3.org/2000/svg">
<path d="M20.3544 9.75807C20.717 9.34621 20.6819 8.71494 20.2762 8.34847L11.338 0.269892C10.9323 -0.0965818 10.2818 -0.0889048 9.88467 0.287199L0.916037 8.77919C0.518871 9.15529 0.499378 9.78575 0.872878 10.1868L1.09773 10.4287C1.47078 10.8297 2.07376 10.8775 2.44368 10.5351L3.11394 9.91511V18.9922C3.11394 19.5491 3.55081 20 4.08958 20H7.58558C8.12435 20 8.56122 19.5491 8.56122 18.9922V12.6419H13.0204V18.9922C13.0126 19.5487 13.3981 19.9996 13.9369 19.9996H17.6418C18.1806 19.9996 18.6174 19.5487 18.6174 18.9918V10.0429C18.6174 10.0429 18.8026 10.2105 19.031 10.4178C19.2589 10.6248 19.7378 10.4588 20.1003 10.0466L20.3544 9.75807Z" fill="#d31342"/>
</svg>
